HIERARCHY
ROOT Hips
{
	OFFSET 0.000000 0.000000 0.000000 
	CHANNELS 6 Xposition Yposition Zposition Yrotation Zrotation Xrotation 
	JOINT Lumbar
	{
		OFFSET 0.000000 0.000000 0.000000 
		CHANNELS 3 Zrotation Xrotation Yrotation
		JOINT Neck
		{
			OFFSET 0.000000 0.445665 0.000000 
			CHANNELS 3 Zrotation Xrotation Yrotation
			End Site
			{
				OFFSET 0.000000 0.227535 0.000000 
			}
		}
		JOINT RightShoulder
		{
			OFFSET 0.019635 0.377685 0.194865 
			CHANNELS 3 Zrotation Xrotation Yrotation
			JOINT RightElbow
			{
				OFFSET 0.000000 -0.243375 0.000000 
				CHANNELS 2 Zrotation Yrotation
				JOINT RightWrist
				{
					OFFSET 0.000000 -0.264825 0.000000 
					CHANNELS 2 Zrotation Xrotation
					End Site
					{
						OFFSET 0.006600 -0.176220 0.000990 
					}
				}
			}
		}
		JOINT LeftShoulder
		{
			OFFSET 0.019635 0.377685 -0.194865 
			CHANNELS 3 Zrotation Xrotation Yrotation
			JOINT LeftElbow
			{
				OFFSET 0.000000 -0.243375 0.000000 
				CHANNELS 2 Zrotation Yrotation
				JOINT LeftWrist
				{
					OFFSET 0.000000 -0.264825 0.000000 
					CHANNELS 2 Zrotation Xrotation
					End Site
					{
						OFFSET 0.006600 -0.176220 -0.000990 
					}
				}
			}
		}
	}
	JOINT RightHip
	{
		OFFSET 0.052140 -0.069960 0.075570 
		CHANNELS 3 Zrotation Xrotation Yrotation
		JOINT RightKnee
		{
			OFFSET 0.000000 -0.402270 0.000000 
			CHANNELS 1 Zrotation
			JOINT RightAnkle
			{
				OFFSET 0.000000 -0.404085 0.000000 
				CHANNELS 3 Zrotation Xrotation Yrotation
				End Site
				{
					OFFSET 0.204105 -0.089430 0.008415 
				}
			}
		}
	}
	JOINT LeftHip
	{
		OFFSET 0.052140 -0.069960 -0.075570 
		CHANNELS 3 Zrotation Xrotation Yrotation
		JOINT LeftKnee
		{
			OFFSET 0.000000 -0.402270 0.000000 
			CHANNELS 1 Zrotation
			JOINT LeftAnkle
			{
				OFFSET 0.000000 -0.404085 0.000000 
				CHANNELS 3 Zrotation Xrotation Yrotation
				End Site
				{
					OFFSET 0.204105 -0.089430 -0.008415 
				}
			}
		}
	}
}
MOTION
Frames: 26
Frame Time: 0.02
-0.03341 0.95763 0.0024 211.45027 0 -3.42876 8.47072 3.75805 4.98858 -23.67647 3.52553 6.30254 78.82281 -14.97448 18.4511 18.37329 55.01915 -8.67655 6.83184 -15.36666 2.99071 -51.99519 65.05906 -34.18362 65.7672 8.14637 -7.33724 8.47519 8.61048 -3.69779 1.18098 -4.59992 -11.97924 -5.45096 0.48877 -10.07611 -7.22418 7.43443 5.00698 7.29521
-0.0336 0.95765 0.00248 211.36588 0 -3.43989 8.47628 3.74979 4.73355 -23.91216 3.64302 6.29744 79.61975 -14.7606 19.1048 18.68366 56.11424 -8.5496 6.59936 -15.1357 2.6243 -51.96369 64.78279 -33.45321 65.62191 8.3164 -7.32572 8.48208 8.78785 -3.73478 1.19333 -4.53635 -12.06542 -5.46905 0.49381 -9.99966 -7.22884 7.44664 5.01799 7.3
-0.03381 0.95765 0.00254 211.29543 0 -3.44857 8.48382 3.73231 4.44421 -24.18572 3.75975 6.2864 80.35611 -14.50256 19.65551 18.92016 57.38582 -8.40612 6.32572 -14.86682 2.23091 -51.92889 64.47685 -32.76368 65.45061 8.48745 -7.30773 8.49153 8.99619 -3.78708 1.21668 -4.45386 -12.19246 -5.48359 0.49918 -9.92756 -7.23804 7.46074 5.02623 7.29383
-0.03403 0.95766 0.00261 211.21838 0 -3.45853 8.49097 3.71827 4.17893 -24.42636 3.87374 6.27958 81.0652 -14.27792 20.24214 19.17833 58.57108 -8.25772 6.08348 -14.63684 1.85943 -51.89585 64.20034 -32.05415 65.27052 8.65932 -7.29405 8.49988 9.18267 -3.83092 1.2354 -4.38205 -12.29288 -5.50031 0.50473 -9.85396 -7.24551 7.47521 5.03641 7.29374
-0.0342 0.95768 0.00267 211.14165 0 -3.46792 8.49568 3.70725 3.8771 -24.73572 4.00362 6.26755 82.01886 -13.99882 20.88849 19.49209 59.79133 -8.15903 5.78781 -14.31404 1.44228 -51.86191 63.85884 -31.35247 65.16469 8.82611 -7.27465 8.50795 9.39998 -3.88052 1.25248 -4.29969 -12.4247 -5.51465 0.50898 -9.77787 -7.25146 7.48423 5.04365 7.28931
-0.03448 0.95767 0.00274 211.06855 0 -3.47777 8.50566 3.68786 3.64326 -24.90764 4.09767 6.26338 82.43788 -13.82091 21.37774 19.67005 60.98122 -7.95405 5.59155 -14.17828 1.11831 -51.8289 63.6456 -30.64473 64.90073 9.00356 -7.2657 8.51718 9.56113 -3.92191 1.27576 -4.23513 -12.50234 -5.53302 0.51592 -9.70871 -7.26175 7.5051 5.05641 7.29104
-0.03507 0.95756 0.00284 210.99368 0 -3.49072 8.53425 3.64723 3.60959 -24.72003 4.11058 6.29633 81.46567 -13.94674 21.49622 19.49643 61.9907 -7.45853 5.70508 -14.54161 1.02743 -51.8003 63.7844 -29.89475 64.23389 9.21047 -7.28616 8.52951 9.5587 -3.93758 1.31171 -4.22868 -12.41185 -5.56432 0.53098 -9.65103 -7.28262 7.55872 5.08479 7.31449
-0.03579 0.95743 0.00294 210.92352 0 -3.50404 8.56723 3.59871 3.6451 -24.38733 4.08396 6.33494 79.94325 -14.17358 21.45267 19.18721 62.96977 -6.85755 5.91566 -15.09941 1.03776 -51.77254 64.0551 -29.13987 63.40635 9.4279 -7.31754 8.54284 9.49781 -3.94438 1.35381 -4.24027 -12.26588 -5.59959 0.54862 -9.6014 -7.30788 7.62412 5.11887 7.34421
-0.03644 0.9573 0.00304 210.85676 0 -3.51628 8.59539 3.55392 3.64626 -24.10197 4.06376 6.36165 78.62592 -14.34489 21.4557 18.93567 63.99799 -6.30548 6.06558 -15.58536 1.02161 -51.7437 64.27048 -28.39666 62.636 9.64038 -7.3446 8.55542 9.46627 -3.95492 1.39433 -4.24106 -12.15299 -5.63254 0.56451 -9.55237 -7.3312 7.68383 5.15058 7.36959
-0.03711 0.95719 0.00313 210.76723 0 -3.53202 8.63588 3.50771 3.65782 -23.89666 4.09245 6.42697 77.49716 -14.55421 21.56527 18.69755 64.89062 -5.74716 6.28393 -15.99975 0.92013 -51.71769 64.46331 -27.61429 61.92942 9.85389 -7.3687 8.56938 9.42952 -3.96738 1.43031 -4.25217 -12.01413 -5.66779 0.58268 -9.48544 -7.35401 7.74506 5.18134 7.40049
-0.03779 0.95705 0.00326 210.72589 0 -3.54091 8.65127 3.4633 3.66545 -23.4894 4.00972 6.414 75.8448 -14.7103 21.42113 18.40114 66.04714 -5.17888 6.38333 -16.61048 1.02325 -51.68603 64.73738 -26.91279 61.05465 10.06738 -7.40165 8.58063 9.38244 -3.97332 1.47679 -4.24627 -11.90832 -5.69891 0.59691 -9.45774 -7.37939 7.80588 5.21536 7.42198
-0.03847 0.95686 0.00352 210.81799 0 -3.52785 8.60001 3.42062 3.63816 -22.56213 3.63176 6.17747 72.88922 -14.68404 20.57071 17.96938 68.01521 -4.5933 6.13141 -17.71091 1.64493 -51.63849 65.18028 -26.42753 59.7346 10.28117 -7.45642 8.58437 9.38241 -3.96533 1.5529 -4.18975 -11.97242 -5.72044 0.59791 -9.53547 -7.40619 7.86276 5.25801 7.41203
-0.03915 0.95665 0.00383 210.95804 0 -3.50839 8.52257 3.38093 3.60598 -21.43618 3.14342 5.86315 69.42514 -14.60371 19.48027 17.48548 70.23497 -4.00425 5.75693 -19.00334 2.47257 -51.58533 65.704 -26.02567 58.25473 10.4939 -7.51965 8.58531 9.36402 -3.95073 1.63886 -4.11555 -12.061 -5.73718 0.59515 -9.65249 -7.43613 7.91875 5.30358 7.39313
-0.03982 0.95646 0.00412 211.07513 0 -3.49383 8.45475 3.34344 3.58094 -20.39948 2.70269 5.5883 66.18802 -14.55435 18.52895 17.03072 72.289 -3.42722 5.4376 -20.21125 3.22106 -51.53475 66.20718 -25.59018 56.86153 10.70535 -7.5791 8.58732 9.31161 -3.93774 1.71892 -4.0489 -12.09338 -5.75427 0.59526 -9.75218 -7.46778 7.97515 5.34716 7.38103
-0.04053 0.95623 0.00441 211.19751 0 -3.47105 8.397 3.29106 3.53775 -19.36167 2.2677 5.29601 62.94634 -14.4783 17.44191 16.54795 74.55854 -2.80278 5.12208 -21.41435 3.91466 -51.48385 66.65014 -25.1344 55.40369 10.92513 -7.63899 8.59011 9.42934 -3.93001 1.80541 -3.98445 -12.30735 -5.77913 0.59065 -9.85018 -7.48685 8.03212 5.39373 7.35783
-0.04116 0.95608 0.0047 211.31999 0 -3.46367 8.31163 3.26998 3.53005 -18.28146 1.79963 5.02184 59.60406 -14.44765 16.58667 16.11325 76.43975 -2.2772 4.7706 -22.67057 4.76694 -51.43254 67.23156 -24.74341 54.0443 11.12652 -7.69942 8.59074 9.1975 -3.91027 1.88054 -3.91156 -12.15816 -5.78674 0.59482 -9.96062 -7.53219 8.08729 5.4347 7.35528
-0.0416 0.95611 0.00499 211.43258 0 -3.50184 8.15937 3.33937 3.62343 -17.12733 1.22709 4.81335 56.08106 -14.5195 16.39508 15.82219 77.1829 -2.03008 4.3289 -24.02574 6.03703 -51.37917 68.21179 -24.49282 52.99293 11.28272 -7.76249 8.58482 7.93436 -3.85564 1.9237 -3.81492 -10.92857 -5.74692 0.625 -10.09806 -7.65438 8.13965 5.45926 7.41401
-0.04195 0.95622 0.00526 211.54319 0 -3.55541 7.97953 3.4394 3.75192 -15.93849 0.63187 4.62611 52.4823 -14.64391 16.45095 15.58252 77.52722 -1.88248 3.85843 -25.42704 7.45535 -51.32592 69.3202 -24.31113 52.04291 11.4193 -7.82506 8.57707 6.33463 -3.7899 1.95466 -3.71131 -9.34741 -5.69012 0.66395 -10.24605 -7.80178 8.18972 5.47803 7.49334
-0.04232 0.95629 0.00553 211.65385 0 -3.60101 7.81048 3.52221 3.86287 -14.7707 0.07468 4.43174 48.93888 -14.76893 16.41937 15.321 78.05735 -1.68646 3.41466 -26.80655 8.78338 -51.27422 70.34673 -24.10574 51.05507 11.56146 -7.88579 8.57098 4.93408 -3.73136 1.99004 -3.61384 -7.97304 -5.64168 0.69831 -10.38784 -7.93444 8.23955 5.49963 7.56197
-0.04277 0.95637 0.00585 211.77028 0 -3.65063 7.64831 3.61868 3.98071 -13.5763 -0.59975 4.22519 45.28886 -14.79368 16.27994 15.05045 78.57807 -1.50267 2.91011 -28.19581 10.20828 -51.21588 71.47987 -23.85803 50.04568 11.71814 -7.95592 8.56123 3.33307 -3.66313 2.03074 -3.50283 -6.39645 -5.59019 0.73513 -10.53747 -8.08165 8.29501 5.52077 7.63632
-0.04305 0.95644 0.00606 211.87296 0 -3.69546 7.46507 3.69441 4.09217 -12.42832 -1.03852 4.04853 41.84985 -15.03421 16.41926 14.81255 79.01906 -1.31844 2.52568 -29.57388 11.47291 -51.17107 72.41535 -23.73014 49.08362 11.83936 -8.00577 8.55881 2.07577 -3.61301 2.05706 -3.41907 -5.16294 -5.54129 0.76892 -10.67209 -8.20379 8.33791 5.54113 7.70331
-0.04292 0.95649 0.00603 211.94297 0 -3.72481 7.23509 3.70147 4.18088 -11.44768 -0.77991 3.96335 39.01469 -15.91253 17.33774 14.64551 79.34741 -1.09676 2.49104 -30.8986 12.17629 -51.16621 72.80715 -23.78384 48.43642 11.86807 -8.0036 8.57613 1.79789 -3.61151 2.04911 -3.40761 -4.91173 -5.50189 0.79263 -10.76807 -8.2566 8.34935 5.56346 7.74886
-0.04263 0.95653 0.0059 211.99786 0 -3.74861 6.98421 3.68737 4.26124 -10.51068 -0.28983 3.90557 36.39776 -16.99691 18.51741 14.51152 79.60615 -0.87313 2.57679 -32.20861 12.7246 -51.1739 72.98321 -23.98559 47.7986 11.85882 -7.98027 8.60106 1.8857 -3.62935 2.02671 -3.42436 -5.02547 -5.46604 0.81297 -10.84718 -8.28219 8.34777 5.58471 7.78563
-0.0424 0.95657 0.00581 212.0565 0 -3.77391 6.73982 3.68543 4.34331 -9.5341 0.06711 3.82601 33.6804 -17.95036 19.5315 14.36649 79.88897 -0.65857 2.60079 -33.53544 13.40074 -51.17488 73.2429 -24.19895 47.01589 11.87018 -7.96403 8.6232 1.84242 -3.64114 2.00913 -3.43184 -5.00792 -5.42976 0.83458 -10.93052 -8.31621 8.35034 5.60465 7.82386
-0.04222 0.95662 0.00576 212.1291 0 -3.80381 6.50675 3.67362 4.43577 -8.63781 0.53862 3.78533 30.96076 -19.06015 20.7477 14.20456 80.18997 -0.41419 2.65348 -34.83336 13.85244 -51.18251 73.59142 -24.05896 46.81613 11.87837 -7.9584 8.6426 1.64599 -3.64127 1.99806 -3.42576 -4.83994 -5.38786 0.85746 -11.02959 -8.36763 8.36012 5.63196 7.87342
-0.04189 0.95666 0.00558 212.16804 0 -3.82289 6.24601 3.67719 4.50367 -7.58728 0.82999 3.67142 28.30451 -19.89617 21.60716 14.08733 80.4417 -0.2286 2.67533 -36.17218 14.7173 -51.17626 73.67261 -24.71767 45.42088 11.86975 -7.92571 8.66936 1.85124 -3.67005 1.97071 -3.45262 -5.06683 -5.35874 0.87695 -11.0907 -8.37618 8.35202 5.6438 7.89712
